<?xml version="1.0" encoding="UTF-8" standalone="no"?>
<!-- Created with Inkscape (http://www.inkscape.org/) -->

<svg
   xmlns:dc="http://purl.org/dc/elements/1.1/"
   xmlns:cc="http://creativecommons.org/ns#"
   xmlns:rdf="http://www.w3.org/1999/02/22-rdf-syntax-ns#"
   xmlns:svg="http://www.w3.org/2000/svg"
   xmlns="http://www.w3.org/2000/svg"
   xmlns:sodipodi="http://sodipodi.sourceforge.net/DTD/sodipodi-0.dtd"
   xmlns:inkscape="http://www.inkscape.org/namespaces/inkscape"
   width="2857.0352"
   height="1597.7106"
   id="svg4597"
   version="1.1"
   inkscape:version="0.48.4 r9939"
   sodipodi:docname="index_1.svg">
  <defs
     id="defs4599" />
  <sodipodi:namedview
     id="base"
     pagecolor="#ffffff"
     bordercolor="#666666"
     borderopacity="1.0"
     inkscape:pageopacity="0.0"
     inkscape:pageshadow="2"
     inkscape:zoom="0.175"
     inkscape:cx="1601.1528"
     inkscape:cy="482.09933"
     inkscape:document-units="px"
     inkscape:current-layer="layer1"
     showgrid="false"
     fit-margin-top="0"
     fit-margin-left="0"
     fit-margin-right="0"
     fit-margin-bottom="0"
     inkscape:window-width="1366"
     inkscape:window-height="714"
     inkscape:window-x="0"
     inkscape:window-y="25"
     inkscape:window-maximized="1" />
  <metadata
     id="metadata4602">
    <rdf:RDF>
      <cc:Work
         rdf:about="">
        <dc:format>image/svg+xml</dc:format>
        <dc:type
           rdf:resource="http://purl.org/dc/dcmitype/StillImage" />
        <dc:title />
      </cc:Work>
    </rdf:RDF>
  </metadata>
  <g
     inkscape:label="Layer 1"
     inkscape:groupmode="layer"
     id="layer1"
     transform="translate(1353.3911,225.57553)">
    <rect
       style="opacity:0.5;fill:#ffffff;fill-opacity:1;stroke:none"
       id="rect4595"
       width="2857.0352"
       height="1597.7106"
       x="-1353.3911"
       y="-225.57553" />
    <path
       style="fill:#ececec"
       d="m -1276.8761,1374.3332 c 5.3381,-12.7749 13.1895,-44.3275 17.4488,-70.1169 6.6619,-40.3382 5.9874,-55.5713 -4.8237,-109.022 -6.9127,-34.1727 -11.7391,-68.0689 -10.727,-75.3249 1.0128,-7.2561 36.0033,-58.4244 77.757,-113.7073 149.3465,-197.73853 304.26389,-317.36466 496.07129,-383.06267 69.4779,-23.79779 197.7747,-51.50189 269.2768,-58.14709 46.3826,-4.3113 47.1426,-4.1305 39.8676,9.4627 -4.0785,7.6212 -14.977,19.8047 -24.2181,27.0736 -17.3321,13.63394 -146.6364,70.08532 -179.3237,78.28934 -26.4606,6.64129 -15.0931,12.69945 49.2608,26.25289 112.0449,23.5975 176.9926,12.18085 307.7527,-54.09774 38.9969,-19.766 78.6663,-35.93854 88.155,-35.93854 9.4887,0 33.1257,6.62714 52.526698,14.72675 31.0594,12.96739 51.2177,15.15976 168.7108,18.34756 l 133.436802,3.62081 44.4512,25.0194 c 24.4483,13.76067 49.04,25.0194 54.649,25.0194 28.9391,0 20.3144,-37.10077 -21.7135,-93.40576 -17.8038,-23.85181 -34.4474,-52.97111 -36.986,-64.70951 -11.172,-51.6561 -129.5978,-205.6154 -194.965802,-253.4652 -139.6563,-102.2299 -268.035198,-135.5204 -489.744498,-126.9998 l -100.0169,3.8436 -75.6159,-36.3602 c -85.6157,-41.168596 -143.3905,-55.772496 -221.307,-55.939996 -92.7919,-0.2002 -173.92949,21.103 -165.36689,43.416996 2.125,5.5376 26.00489,20.7181 53.06649,33.7341 56.3804,27.1177 69.3758,41.8698 69.3758,78.7511 0,39.6928 -25.2796,75.6113 -88.4499,125.6728 -169.58479,134.3929 -269.96269,307.58464 -342.31479,590.62863 -17.625,68.95143 -35.0138,123.00473 -41.6109,129.35143 -6.2328,5.9967 -31.1735,17.3589 -55.4243,25.2494 -55.4203,18.0327 -88.3218,38.8861 -160.1148,101.4825 -31.3637,27.3457 -65.7604,56.0832 -76.438,63.861 l -19.413,14.1415 26.0775,4.8921 c 36.3215,6.814 194.4682,-1.9956 237.8538,-13.2498 39.504,-10.2472 46.1338,-8.9267 46.1338,9.1887 0,6.7043 12.0093,30.1738 26.6873,52.1543 14.6781,21.9806 26.6874,43.1618 26.6874,47.0694 0,18.0225 14.5926,13.2041 23.3281,-7.7026 z"
       id="path4593"
       inkscape:connector-curvature="0" />
    <path
       style="fill:#f2f2f2"
       d="m -283.47424,118.24651 c 8.71459,-1.05595 28.56917,-6.60449 44.12168,-12.3294 24.32619,-8.954683 32.51391,-14.095253 58.59989,-36.788623 16.67731,-14.50902 33.8553,-27.7812 38.17278,-29.49465 4.31774,-1.71308 43.483404,1.56103 87.034844,7.27602 155.776856,20.44158 270.229906,68.407593 366.497686,153.595183 34.87093,30.85723 90.3087,92.92173 116.35611,130.26458 16.89701,24.22369 17.03524,24.69932 7.26313,24.94352 -5.47876,0.13709 -15.60796,-2.05785 -22.50861,-4.87748 -12.94292,-5.28809 -84.54609,-58.90885 -99.30209,-74.36294 -11.94512,-12.51015 -11.72677,-4.34614 0.94627,35.37864 22.06472,69.16376 48.69106,101.39911 126.16826,152.74616 23.10598,15.31348 44.4412,32.12265 47.41161,37.35433 2.97042,5.23163 6.716,20.33869 8.32366,33.57105 2.57341,21.18422 7.67514,32.98495 42.69842,98.76337 l 39.77567,74.70472 0.12073,32.34065 c 0.0664,17.78748 1.55724,34.87081 3.31313,37.96335 9.0593,15.9557 26.8151,-0.41384 44.70247,-41.2123 7.57741,-17.28298 18.42228,-35.57527 24.09962,-40.64959 24.98354,-22.33055 72.79705,-135.82189 78.71604,-186.84216 C 741.68311,401.5878 719.84937,320.38381 645.746,200.8104 l -33.42922,-53.94169 -3.62392,-53.073723 c -4.1032,-60.09246 -14.1375,-96.5186499 -38.43669,-139.53083 -28.93787,-51.224043 -66.08343,-89.290837 -75.70589,-77.584457 -2.38797,2.90517 -3.28229,20.8237 -1.98718,39.818898 2.69823,39.574799 -1.36726,51.357999 -21.70199,62.903589 -21.88487,12.4257201 -49.60245,9.73185 -96.97946,-9.42586 -127.18639,-51.43027 -254.09973,-52.55703 -432.807366,-3.84265 -43.534254,11.86741 -78.780384,19.20123 -84.344904,17.5507 -5.25748,-1.55923 -19.32971,-11.75353 -31.27183,-22.65426 -27.29162,-24.91123 -49.08899,-36.52357 -106.0765,-56.511442 -24.89554,-8.732065 -51.50792,-18.700695 -59.13886,-22.153035 l -13.87418,-6.27652 5.4662,15.90945 c 7.61341,22.159176 61.97803,106.5964971 81.76484,126.994307 18.01647,18.57292 19.36385,22.64167 9.37582,28.31265 -3.69646,2.09876 -12.87703,16.06723 -20.4012,31.04097 -7.5242,14.97382 -15.44311,28.225943 -17.59758,29.449203 -9.93682,5.6419 -2.71199,12.17923 11.54967,10.45081 z"
       id="path4593-6"
       inkscape:connector-curvature="0" />
    <path
       style="fill:#f9f9f9"
       d="m 758.74846,22.802763 c 5.80547,4.03674 20.71689,11.34424 33.13632,16.23947 19.42576,7.65672 27.10407,8.95524 54.9527,9.29533 17.80457,0.21701 35.24713,1.44603 38.76143,2.73034 3.51423,1.28464 25.30636,24.24853 48.42681,51.030977 82.69848,95.79674 125.79718,185.98943 138.00918,288.81204 4.4236,37.24517 4.4833,104.27807 0.1253,140.69254 -2.8266,23.62174 -2.9985,23.98183 -9.0046,18.89012 -3.3674,-2.85451 -8.2807,-9.6041 -10.918,-14.99856 -4.9468,-10.11758 -19.2519,-80.73965 -19.8391,-97.94119 -0.4754,-13.92475 -4.7206,-8.89929 -18.3964,21.7777 -23.81062,53.41092 -25.08254,87.06505 -6.027,159.46897 5.6828,21.59319 9.4991,43.13628 8.4805,47.87403 -1.0186,4.73773 -6.8651,15.82832 -12.992,24.64567 -9.80895,14.11594 -13.06762,23.94569 -27.27246,82.26796 l -16.13281,66.23645 -17.26435,19.50846 c -9.49572,10.7295 -17.75681,21.79991 -18.35892,24.6005 -3.10674,14.44925 16.34364,14.12585 48.96867,-0.81422 13.82051,-6.32892 30.14647,-11.51312 36.28007,-11.52043 26.9913,-0.0328 116.5768,-42.63499 147.4857,-70.13657 66.036,-58.75597 96.4399,-119.28191 115.9866,-230.89641 l 8.818,-50.35127 26.2722,-33.85176 c 29.7467,-38.32847 43.2407,-65.60777 51.6889,-104.49364 10.0614,-46.30963 8.135,-89.10874 -3.9256,-87.22887 -2.993,0.46655 -13.1362,10.7602 -22.5402,22.87479 -19.5926,25.23965 -28.3534,30.14457 -46.7683,26.18525 -19.8187,-4.26112 -35.0391,-20.73923 -53.2533,-57.6545 -48.8972,-99.10139 -124.5963,-167.81284 -258.15338,-234.323907 -32.5355,-16.20235 -57.65764,-30.68735 -60.11835,-34.66263 -2.32507,-3.75582 -5.32076,-17.42849014 -6.65715,-30.38407 -3.05423,-29.60729 -9.93432,-48.27375 -33.48161,-90.840013 -10.28675,-18.59556 -20.94286,-38.85494 -23.68005,-45.02124 l -4.97683,-11.21108 -5.24214,12.49537 c -7.30145,17.40387 -19.8803,97.312503 -18.91863,120.183163 0.87559,20.8244899 -0.49545,23.9930099 -9.54047,22.0482899 -3.34749,-0.71975 -16.35511,2.75698 -28.90568,7.72611 -12.55069,4.96911 -24.41579,8.6914701 -26.36681,8.2720101 -8.99865,-1.9347501 -8.15939,5.86861 1.34154,12.47462 z"
       id="path4593-6-6"
       inkscape:connector-curvature="0" />
  </g>
</svg>
