<?xml version="1.0" encoding="UTF-8" standalone="no"?>
<!-- Created with Inkscape (http://www.inkscape.org/) -->

<svg
   xmlns:dc="http://purl.org/dc/elements/1.1/"
   xmlns:cc="http://creativecommons.org/ns#"
   xmlns:rdf="http://www.w3.org/1999/02/22-rdf-syntax-ns#"
   xmlns:svg="http://www.w3.org/2000/svg"
   xmlns="http://www.w3.org/2000/svg"
   xmlns:sodipodi="http://sodipodi.sourceforge.net/DTD/sodipodi-0.dtd"
   xmlns:inkscape="http://www.inkscape.org/namespaces/inkscape"
   width="2500"
   height="1217.61"
   id="svg4658"
   version="1.1"
   inkscape:version="0.48.4 r9939"
   sodipodi:docname="shark.svg">
  <defs
     id="defs4660">
    <inkscape:path-effect
       effect="skeletal"
       id="path-effect3013"
       is_visible="true"
       pattern="M 0,0 0,10 10,5 z"
       copytype="single_stretched"
       prop_scale="1"
       scale_y_rel="false"
       spacing="0"
       normal_offset="0"
       tang_offset="0"
       prop_units="false"
       vertical_pattern="false"
       fuse_tolerance="0" />
    <inkscape:path-effect
       effect="spiro"
       id="path-effect3011"
       is_visible="true" />
    <inkscape:path-effect
       effect="skeletal"
       id="path-effect3007"
       is_visible="true"
       pattern="M 0,0 0,10 10,5 z"
       copytype="single_stretched"
       prop_scale="1"
       scale_y_rel="false"
       spacing="0"
       normal_offset="0"
       tang_offset="0"
       prop_units="false"
       vertical_pattern="false"
       fuse_tolerance="0" />
    <inkscape:path-effect
       effect="spiro"
       id="path-effect3005"
       is_visible="true" />
    <inkscape:path-effect
       effect="skeletal"
       id="path-effect3001"
       is_visible="true"
       pattern="M 0,0 0,10 10,5 z"
       copytype="single_stretched"
       prop_scale="1"
       scale_y_rel="false"
       spacing="0"
       normal_offset="0"
       tang_offset="0"
       prop_units="false"
       vertical_pattern="false"
       fuse_tolerance="0" />
    <inkscape:path-effect
       effect="spiro"
       id="path-effect2999"
       is_visible="true" />
    <inkscape:path-effect
       effect="skeletal"
       id="path-effect2995"
       is_visible="true"
       pattern="M 0,0 0,10 10,5 z"
       copytype="single_stretched"
       prop_scale="1"
       scale_y_rel="false"
       spacing="0"
       normal_offset="0"
       tang_offset="0"
       prop_units="false"
       vertical_pattern="false"
       fuse_tolerance="0" />
    <inkscape:path-effect
       effect="spiro"
       id="path-effect2993"
       is_visible="true" />
  </defs>
  <sodipodi:namedview
     id="base"
     pagecolor="#ffffff"
     bordercolor="#666666"
     borderopacity="1.0"
     inkscape:pageopacity="0.0"
     inkscape:pageshadow="2"
     inkscape:zoom="0.24748737"
     inkscape:cx="1469.1874"
     inkscape:cy="914.33849"
     inkscape:document-units="px"
     inkscape:current-layer="layer1"
     showgrid="false"
     fit-margin-top="0"
     fit-margin-left="0"
     fit-margin-right="0"
     fit-margin-bottom="0"
     inkscape:window-width="1366"
     inkscape:window-height="714"
     inkscape:window-x="0"
     inkscape:window-y="25"
     inkscape:window-maximized="1" />
  <metadata
     id="metadata4663">
    <rdf:RDF>
      <cc:Work
         rdf:about="">
        <dc:format>image/svg+xml</dc:format>
        <dc:type
           rdf:resource="http://purl.org/dc/dcmitype/StillImage" />
        <dc:title />
      </cc:Work>
    </rdf:RDF>
  </metadata>
  <g
     inkscape:label="Layer 1"
     inkscape:groupmode="layer"
     id="layer1"
     transform="translate(216.99882,-29.551813)">
    <g
       transform="translate(1665.1134,-241.72566)"
       id="layer1-6"
       inkscape:label="Layer 1"
       style="fill:#333333">
      <path
         inkscape:connector-curvature="0"
         id="path4593-6"
         d="m 228.89057,701.62803 c -5.01665,-2.1853 -15.88549,-9.0411 -24.15336,-15.2349 -12.93198,-9.6879 -16.90525,-14.2188 -28.4375,-32.42649 -7.37265,-11.64089 -15.26504,-22.63244 -17.5381,-24.42601 -2.27325,-1.79341 -26.24999,-6.82462 -53.28163,-11.18031 -96.6881099,-15.57972 -173.60465,-7.34807 -246.2995,26.35914 -26.33211,12.20967 -70.5153,39.38967 -92.73431,57.04697 -14.41339,11.454 -14.58079,11.7134 -8.78772,13.6025 3.24788,1.0593 9.68935,1.5552 14.31389,1.1021 8.67381,-0.8496 61.00591,-20.1026 72.57614,-26.7006 9.36618,-5.3411 7.77942,-0.5039 -6.87638,20.9619 -25.51676,37.3737 -47.17041,51.8771 -102.6053,68.7243 -16.53238,5.0245 -32.27393,11.2582 -34.98135,13.8531 -2.70747,2.5948 -7.6395,10.9497 -10.96026,18.5663 -5.31606,12.1936 -10.4683,18.3319 -43.12099,51.3718 l -37.08354,37.5237 -5.84132,19.2947 c -3.21253,10.6123 -7.15072,20.5497 -8.75115,22.0835 -8.25721,7.9138 -15.94214,-5.0307 -19.34775,-32.5895 -1.44269,-11.6744 -4.65692,-24.5345 -7.14263,-28.5781 -10.93853,-17.7942 -19.25065,-94.1092 -13.68445,-125.6381 11.89187,-67.3607 39.41852,-111.96688 105.00921,-170.16575 l 29.58903,-26.25457 11.63225,-31.05312 c 13.1706,-35.15972 25.66188,-55.12613 47.84808,-76.48149 26.42169,-25.43259 55.39847,-41.54255 59.05744,-32.83408 0.90804,2.16118 -1.75429,13.023 -5.91636,24.13731 -8.67135,23.15566 -8.34513,30.9187 1.74071,41.4421 10.85462,11.32558 27.89019,14.66113 59.60476,11.67027 85.1398,-8.02928 161.14292,13.93775 259.19027,74.91314 23.8849,14.85415 43.62822,25.522 47.24618,25.5288 3.41832,0.007 13.64185,-3.57185 22.7192,-7.9522 20.74446,-10.01033 35.83502,-13.05764 73.43783,-14.82991 16.42714,-0.77436 34.10034,-1.98101 39.27395,-2.68172 l 9.40636,-1.27379 -6.10291,8.52718 c -8.50024,11.87695 -56.03355,52.61113 -71.49046,61.26446 -14.07401,7.87918 -15.60459,10.06899 -10.65066,15.23786 1.83344,1.91297 4.82495,11.89371 6.64775,22.17941 1.82283,10.2857 4.18861,19.6135 5.25716,20.7284 4.92852,5.1424 -0.55284,7.7582 -8.76258,4.1817 z"
         style="fill:#333333" />
    </g>
    <path
       style="fill:#4d4d4d;fill-opacity:1"
       d="m 1607.9587,1393.0962 c -17.3547,-13.1726 -84.4607,-76.0984 -265.8849,-249.322 -127.3056,-121.5512 -124.6862,-119.1093 -126.5381,-117.9648 -4.762,2.9431 22.5401,63.0034 42.4924,93.4765 6.9001,10.5385 7.746,12.3143 6.9073,14.5 -1.479,3.8542 -6.2227,1.0708 -51.3647,-30.1393 -34.2398,-23.6725 -46.897,-32.0032 -51.6266,-33.9794 l -3.2326,-1.3506 -4.4304,5.5848 c -12.8946,16.2544 -20.5792,33.3326 -29.2749,65.0609 -3.6614,13.3591 -5.6225,17.3236 -8.5696,17.3236 -2.9352,0 -16.6476,-7.2342 -23.553,-12.4258 -10.1195,-7.6079 -18.6312,-19.0955 -26.976,-36.4075 -5.8687,-12.1752 -7.7787,-17.8883 -10.8608,-32.4859 -1.4012,-6.6361 -3.026,-12.6422 -3.6107,-13.3467 -0.7677,-0.925 -4.7517,-1.2773 -14.3335,-1.2675 -24.371,0.025 -93.71083,-9.1913 -144.84973,-19.2523 l -15.821,-3.1127 -14.679,2.1197 c -57.2893,8.2726 -124.7122,9.6736 -152.745,3.1738 -4.4363,-1.0286 -17.7113,-5.4571 -29.5,-9.8411 -29.5978,-11.0068 -35.7917,-12.5008 -45.5088,-10.977 -28.6213,4.4882 -93.9758,65.1753 -217.8916,202.3303 -10.4314,11.546 -24.0793,26.6177 -30.3287,33.4927 -6.2492,6.875 -24.0523,25.1 -39.5622,40.5 -15.51,15.4 -39.8871,40.0075 -54.1714,54.6832 -26.7777,27.5117 -33.2086,32.7864 -39.9989,32.8074 -4.381,0.014 -7.4725,-2.5013 -7.4725,-6.0788 0,-4.9519 3.7691,-14.6721 11.4045,-29.4118 41.5477,-80.2041 180.3909,-264.9708 269.9576,-359.24798 14.7262,-15.5006 41.0473,-40.86956 48.3834,-46.63316 l 6.076,-4.7736 -2.4108,-5.4511 c -4.2703,-9.6559 -8.5588,-17.7095 -13.7314,-25.7862 -2.8072,-4.3835 -8.2768,-15.7847 -12.3027,-25.6448 -3.9867,-9.764 -9.0205,-21.2876 -11.1863,-25.6079 -2.1659,-4.3204 -5.1258,-11.1615 -6.5777,-15.2025 -10.7384,-29.888 -16.5141,-94.9334 -15.2864,-172.1527 0.9549,-60.0574 5.2346,-109.6713 18.7617,-217.5 9.4045,-74.9671 8.9589,-67.9895 7.2446,-113.4347 -1.6373,-43.4078 -1.3276,-57.0666 1.6143,-71.1926 2.638,-12.6667 5.7478,-21.3807 14.0439,-39.3525 6.5918,-14.2798 7.0093,-15.6066 7.0093,-22.2727 0,-13.2798 2.1275,-37.7159 4.5054,-51.7475 4.5869,-27.06692 12.1866,-48.98592 27.1388,-78.273417 11.9197,-23.347797 16.7492,-31.809393 26.9547,-47.226593 27.4722,-41.5014 56.26,-65.8198 75.2717,-63.5854 14.255,1.6754 39.4973,16.2051 73.1294,42.0938 5.775,4.4454 12.3,9.3028 14.5,10.7943 5.2921,3.5877 40.759,38.913296 54.9159,54.697293 14.331,15.9779 26.9929,31.710297 34.4633,42.820397 3.7161,5.5266 7.9134,10.3194 11.3783,12.9925 6.3773,4.9201 36.8381,35.72562 47.7607,48.30132 5.4772,6.3062 11.7686,15.9045 23.4818,35.8247 8.8,14.9658 17.1281,28.5675 18.5069,30.2259 l 2.5069,3.0153 4.4931,-3.9353 c 5.5247,-4.8389 8.103,-6.2448 11.4521,-6.2448 4.98293,0 5.04873,2.3371 0.984,35 -1.3831,11.1146 -1.4721,14.6485 -0.5036,20 2.60673,14.4033 10.07273,35.1481 25.55283,71 12.2169,28.2943 22.3161,48.2546 47.0545,93 39.9719,72.2986 42.8244,78.6018 59.9638,132.5 15.7856,49.6411 18.8222,59.775 22.6234,75.5 3.6566,15.1265 6.8552,36.1251 6.8615,45.0452 0,5.6551 0.6657,8.0348 4.8665,17.5 12.723,28.6669 37.9877,68.2791 52.5898,82.4548 l 4.6354,4.5 7.7064,-2.8437 c 19.3835,-7.1524 27.5462,-9.656 31.4709,-9.6526 4.5057,0 10.7664,3.0673 10.6923,5.2316 -0.024,0.6956 -0.6554,6.4035 -1.4036,12.6842 -0.7481,6.2807 -1.0944,12.1122 -0.7695,12.9589 2.6721,6.9636 32.2112,20.3118 65.3551,29.533 43.2654,12.0372 128.8179,26.5886 156.3231,26.5886 6.2443,0 6.251,0 11.1808,-5.25 7.8759,-8.3824 22.7384,-28.0088 58.8438,-77.7047 59.4587,-81.8396 70.4648,-95.565 88.5136,-110.3822 4.125,-3.3864 21.45,-17.8817 38.5,-32.2117 59.8261,-50.282 80.6684,-65.5718 96.244,-70.6037 l 6.6057,-2.1341 1.7564,2.1691 c 2.6581,3.2826 3.4153,11.5271 3.1794,34.6173 -0.2273,22.2442 -1.7101,53.258 -2.5885,54.1363 -0.2881,0.2882 -6.2223,-0.8621 -13.1871,-2.5562 -14.8956,-3.6231 -20.4516,-3.907 -22.9272,-1.1715 -1.4516,1.604 -1.557,2.5214 -0.6605,5.75 2.3312,8.3956 1.5923,11.4279 -14.3541,58.9004 -16.5377,49.2327 -46.0634,141.6575 -52.8513,165.441 -5.943,20.8232 -5.8074,23.2419 2.7184,48.5 12.443,36.86286 31.7866,87.02994 39.3831,102.13854 4.9186,9.7826 12.904,20.8619 46.0282,63.8614 38.7385,50.2877 43.5561,57.2657 42.9635,62.2299 -0.2427,2.033 -1.2269,2.93 -4.5316,4.1299 -3.6149,1.3125 -4.9803,1.3454 -9.5,0.2289 -24.2456,-5.9897 -75.5146,-28.7605 -101.5351,-45.0962 -5.6412,-3.5416 -15.9912,-11.3281 -23,-17.3034 -7.0088,-5.9754 -21.0683,-17.6789 -31.2433,-26.0079 -78.2763,-64.0749 -109.4432,-94.6973 -124.8351,-122.65418 -5.4716,-9.9381 -10.8266,-15.71656 -17.6064,-18.99866 -12.1037,-5.8593 -56.345,-2.8561 -102.0585,6.9279 -35.4476,7.58686 -56.5075,15.29756 -66.7863,24.45276 -6.4869,5.7778 -6.8899,8.6844 -2.8299,20.41088 1.7139,4.9503 3.1162,10.3588 3.1162,12.0189 0,2.826 -2.1359,6.1612 -3.9457,6.1612 -2.969,0 -10.5296,-4.0048 -22.4252,-11.8784 -18.4667,-12.223 -27.9709,-14.8213 -33.1759,-9.0699 -1.7826,1.9698 -1.7147,2.1237 3.1913,7.2305 11.9841,12.4747 121.707,130.9152 173.9012,187.7178 54.0835,58.8587 108.3027,119.3277 127.3234,142 7.3289,8.7359 14.6189,19.5159 22.5668,33.3704 6.1838,10.7796 7.4924,14.8061 5.5662,17.1271 -1.6398,1.9759 -2.1988,1.9075 -5.6172,-0.6872 z M 798.00867,981.31072 c 2.1645,-0.823 2.5651,-1.6012 2.5651,-4.9825 0,-3.8378 -6.7879,-31.98176 -10.7428,-44.54226 l -1.8893,-6 -1.6768,3.1866 c -2.5707,4.8851 -3.4126,4.7965 -6.1723,-0.6496 -3.2195,-6.3534 -5.6498,-6.6606 -8.4996,-1.0746 -2.8959,5.6764 -8.3757,21.3364 -13.0978,37.4307 -4.5069,15.36056 -4.5413,15.14616 2.5786,16.06436 2.2,0.2837 5.125,0.6855 6.5,0.893 5.4986,0.8295 28.0305,0.5884 30.4349,-0.3257 z m -63.4349,-3.8737 5.5,-0.6511 -0.288,-5 c -0.4518,-7.84246 -5.0434,-35.21926 -7.2899,-43.46486 -3.1927,-11.7181 -5.0081,-12.6929 -9.7825,-5.2527 -4.2305,6.5927 -11.8081,22.1303 -18.6385,38.2176 -3.1525,7.42496 -5.9339,13.84126 -6.1807,14.25846 -1.028,1.737 4.9741,2.6126 17.6796,2.5792 7.425,-0.019 15.975,-0.3285 19,-0.6866 z m 108.3751,-5.1066 6.8751,-2.2022 -0.5933,-4.3291 c -1.0763,-7.85246 -17.481,-46.49776 -20.9499,-49.35266 -1.4133,-1.1632 -1.8701,-0.9406 -3.4704,1.6908 l -1.8428,3.0303 -1.2851,-3.1908 c -0.7068,-1.7549 -1.4444,-2.7408 -1.639,-2.1908 -0.1947,0.55 -3.0853,13.0976 -6.4235,27.8835 -6.4272,28.46776 -6.4346,28.61196 -1.5809,30.72666 3.7633,1.6397 23.4489,0.3241 30.9098,-2.0657 z m -148.3751,-2.4044 c 0,-9.60196 -5.6039,-57.02906 -7.047,-59.64006 -0.6223,-1.126 -1.3695,-0.2824 -2.9969,3.3836 l -2.1679,4.8836 -2.1441,-2.6853 -2.1441,-2.6854 -6.1412,11.3018 c -8.0386,14.7935 -11.3588,23.4241 -11.3588,29.5261 0,4.9428 1.4291,7.0582 8.2319,12.18516 2.8092,2.1171 17.9523,6.946 22.0181,7.0211 3.603,0.067 3.75,-0.062 3.75,-3.2906 z m 176.7277,-8.82126 c 11.0715,-5.4473 13.6329,-7.8805 12.7272,-12.0903 -1.7819,-8.2832 -16.8237,-42.6023 -19.3589,-44.1692 -1.864,-1.152 -1.9445,-0.7387 -5.7256,29.4195 l -0.5616,4.4789 -2.1544,-2.9701 c -3.2688,-4.5064 -5.4865,-6.4876 -7.2623,-6.4876 -1.4073,0 -1.5547,1.4041 -1.1812,11.25 0.3556,9.3729 0.8548,12.1864 2.9919,16.862 2.9567,6.4688 6.015,9.07556 9.731,8.29436 1.4114,-0.29666 6.2687,-2.36106 10.7939,-4.58756 z m -221.3347,-8.4006 c 0.829,-2.1603 0.5782,-40.3054 -0.2854,-43.4081 -1.062,-3.8156 -1.807,-1.6242 -5.1232,15.0686 -1.6731,8.4217 -3.225,15.4952 -3.4487,15.7189 -1.4763,1.4764 -1.5396,-9.6532 -0.1483,-26.0899 1.7486,-20.6582 2.0954,-35.7077 0.8228,-35.7077 -0.8681,0 -5.5384,12.576 -9.7622,26.2872 -1.4888,4.833 -2.783,8.658 -2.8759,8.5 -0.093,-0.158 0.2511,-7.1015 0.7647,-15.4302 0.9111,-14.775 0.5591,-20.357 -1.2835,-20.357 -0.4997,0 -2.3148,2.9763 -4.0336,6.614 -1.7187,3.6378 -3.3567,6.3824 -3.6399,6.0992 -0.2832,-0.2833 1.1569,-10.0182 3.2002,-21.6332 2.0433,-11.615 3.3929,-21.4404 2.9992,-21.8342 -1.0892,-1.0891 -4.3073,3.6098 -6.6805,9.7542 -2.016,5.2195 -2.0943,6.6732 -1.5353,28.5 0.6693,26.137 1.1664,29.4553 4.6755,31.2114 2.395,1.1986 2.6324,1.8225 2.8548,7.5034 0.1317,3.3631 3.2293,5.3249 6.036,3.8228 2.077,-1.1116 1.5831,-2.267 6.7085,15.6936 1.0799,3.7842 2.5058,6.0662 5.1551,8.25 4.2033,3.4646 4.7662,3.6091 5.5997,1.437 z m 256.5127,-11.1682 c 9.0445,-5.3327 9.5158,-6.2938 7.6102,-15.5192 -1.7538,-8.4906 -7.5577,-27.3296 -10.6223,-34.479 -1.5325,-3.5751 -2.243,-4.3787 -2.8743,-3.2505 -0.8114,1.4503 -4.2872,28.2312 -5.5157,42.4987 -0.3315,3.85 -0.845,8.6875 -1.1411,10.75 -0.5306,3.6962 -0.4901,3.75 2.8224,3.75 2.086,0 5.7728,-1.4223 9.7208,-3.75 z m -237.9057,-24.9937 c 0,-1.9531 -3.3579,0.063 -9.188,5.5164 -3.6295,3.3949 -4.812,5.2207 -4.812,7.4299 0,3.5713 1.5348,6.7421 4.3429,8.972 2.0878,1.6581 2.1461,1.5644 5.8829,-9.4585 2.0758,-6.1232 3.7742,-11.7301 3.7742,-12.4598 z m 253.9261,4.3199 3.3185,-3.4237 -3.9795,-8.3353 c -4.0918,-8.5706 -6.3974,-11.4715 -8.2213,-10.3443 -2.9316,1.8118 1.5233,25.5271 4.7952,25.5271 0.4228,0 2.262,-1.5407 4.0871,-3.4238 z m 10.9306,-8.5031 c 5.6112,-2.8626 6.5075,-4.3731 5.8396,-9.8409 -1.1028,-9.0282 -8.938,-29.8189 -10.8031,-28.6662 -1.3977,0.8639 -0.6162,40.434 0.7986,40.434 0.2133,0 2.0876,-0.8671 4.1649,-1.9269 z m 20.8457,-17.2693 c 3.0905,-2.9954 3.2976,-3.6212 3.2976,-9.9645 0,-6.3988 -2.3873,-21.1366 -4.9888,-30.7979 -0.8685,-3.2253 -1.4188,-4.009 -2.0807,-2.9632 -1.0503,1.6595 -1.2704,46.9218 -0.2281,46.9218 0.3863,0 2.1863,-1.4383 4,-3.1962 z m -10.2795,-6.5225 c 4.0739,-6.513 4.4085,-9.8529 1.6056,-16.0278 -2.8212,-6.2151 -8.0218,-13.4221 -9.3642,-12.9769 -3.2512,1.0783 -2.4117,18.978 1.3632,29.0674 1.1639,3.1108 2.2742,5.656 2.4673,5.656 0.1931,0 1.9607,-2.5734 3.9281,-5.7187 z m 26.8271,-29.4806 c 3.536,-2.4905 3.607,-6.7525 0.27,-16.2096 -2.9589,-8.3856 -4.1141,-9.7863 -4.8989,-5.9399 -0.5248,2.5717 -2.6211,22.1845 -2.6211,24.5221 0,1.2871 3.8367,0.032 7.25,-2.3726 z m -20.672,-349.9546 c 3.389,-6.688 3.2071,-9.3768 -0.7272,-10.7483 -5.2472,-1.8291 -5.8516,-1.503 -5.8421,3.1522 0.01,2.3375 0.2928,6.6153 0.64,9.5062 0.5313,4.4231 0.8593,5.0671 2.0693,4.0628 0.7909,-0.6563 2.5279,-3.3442 3.86,-5.9729 z m -329.0604,-16.899 c -4.8391,-14.8067 -5.3644,-18.6714 -1.7409,-12.8084 2.8235,4.5684 5.8438,7.2844 6.65,5.9799 0.5511,-0.8918 -1.7025,-19.308 -3.0127,-24.6186 -0.2713,-1.1 2.3865,3.5395 5.9063,10.31 11.1035,21.358 11.5233,20.1911 5.0538,-14.0499 -1.5698,-8.3087 -2.3179,-14.831 -1.8926,-16.5 0.6095,-2.3921 1.1494,-1.4011 4.0495,7.4336 6.6228,20.1755 8.1939,19.8479 6.5591,-1.3675 -0.5861,-7.6044 -1.3485,-14.8387 -1.6944,-16.0762 -1.7005,-6.0836 -9.1598,1.1191 -11.7611,11.3565 l -1.8057,7.1064 -3.6645,-0.1064 c -3.607,-0.1048 -3.6692,-0.041 -3.9689,4.0811 -0.2497,3.4357 -0.6986,4.2437 -2.5,4.5 -2.1018,0.2991 -2.2083,0.8245 -2.4945,12.3124 -0.332,13.3259 1.0091,26.0718 3.1863,30.282 1.8771,3.6299 6.9607,8.674 7.4034,7.3458 0.1912,-0.5734 -1.7317,-7.4048 -4.2731,-15.1807 z m 315.0926,1.0102 c 4.6151,-13.5958 4.7752,-17.4383 0.8571,-20.5732 -1.632,-1.3058 -3.2421,-2.3764 -3.578,-2.3791 -0.8926,-0.01 -1.8628,8.7646 -2.5432,22.995 -0.7197,15.0512 0.1428,15.0442 5.2641,-0.043 z m -8.0601,-5.4204 c 1.0588,-1.9662 1.4972,-4.1772 1.1175,-5.6362 -0.9169,-3.5224 -5.1206,-8.3568 -6.5164,-7.4942 -3.8974,2.4088 -8.1932,18.7779 -6.0023,22.8716 0.9769,1.8254 1.3179,1.6802 5.3511,-2.2781 2.3692,-2.3252 5.0917,-5.6836 6.0501,-7.4631 z m -12.7084,-4.2901 c 4.2662,-6.6484 8.3168,-16.1347 7.9591,-18.6401 -0.191,-1.3379 -1.9179,-2.9223 -4.7324,-4.3418 -2.4374,-1.2293 -4.5611,-2.1055 -4.7194,-1.9473 -0.1583,0.1583 -0.9765,4.8736 -1.8184,10.4785 -1.7187,11.4429 -1.9752,19.2039 -0.6349,19.2039 0.4927,0 2.2684,-2.139 3.946,-4.7532 z m -24.9459,-12.5581 c 4.1746,-7.5624 11.1042,-24.4799 11.1042,-27.1088 0,-2.8465 -15.419,-10.2164 -18.9979,-9.0806 -1.827,0.5799 -1.8257,1.0452 0.067,24.0007 1.2139,14.7239 1.9459,19.5 2.989,19.5 0.4411,0 2.6183,-3.2901 4.838,-7.3113 z m 11.7799,-2.9387 c 1.1133,-1.2375 3.5145,-4.4618 5.336,-7.1652 l 3.3117,-4.9152 -2.9117,-2.3451 c -1.6014,-1.2899 -3.585,-2.2222 -4.408,-2.0718 -1.9873,0.3629 -5.9343,10.2734 -5.973,14.9973 -0.036,4.3685 1.5914,4.894 4.645,1.5 z m -44.8965,-10.6017 c 6.9006,-10.4598 14.1836,-24.1702 14.2041,-26.7394 0.019,-2.4039 -6.3671,-6.2725 -15.5971,-9.4481 -7.5778,-2.6071 -11.5091,-2.5234 -14.163,0.3017 -6.1294,6.5244 -9.6581,25.7375 -4.727,25.7375 0.7488,0 2.9955,-1.5412 4.9928,-3.4249 2.1113,-1.9912 3.7878,-2.933 4.0049,-2.25 0.2055,0.6462 0.884,5.8305 1.508,11.5207 0.6239,5.6902 1.366,10.9493 1.649,11.6869 0.9068,2.3631 2.8807,0.5699 8.1283,-7.3844 z m -175.3007,-12.5874 c 0.8368,-8.7352 1.5215,-19.4724 1.5215,-23.8604 l 0,-7.9783 -5.75,0.5563 c -10.9189,1.0564 -23.7301,6.2721 -26.5481,10.8083 -0.5421,0.8727 -0.6835,3.198 -0.314,5.1673 0.7622,4.0629 8.6222,16.6197 15.3989,24.6006 l 4.5467,5.3546 1.67,-2.2139 1.67,-2.214 2.2162,3.7563 c 1.3586,2.3026 2.5745,3.3981 3.1418,2.8308 0.5091,-0.5091 1.6102,-8.0725 2.447,-16.8076 z m -21.4785,11.4169 c 0,-1.5259 -7.9151,-16.9778 -8.6967,-16.9778 -1.8801,0 -5.3033,4.645 -5.3033,7.1961 0,2.3907 0.9874,3.4857 6.155,6.8257 6.3967,4.1344 7.845,4.6801 7.845,2.956 z m 149.5528,-1.1442 0.6876,-2.1664 1.7518,2.3225 c 1.0523,1.395 2.3601,2.0891 3.275,1.738 1.8981,-0.7283 11.1059,-15.5175 17.0188,-27.3346 6.3206,-12.6321 6.4326,-13.1668 3.0311,-14.475 -5.8499,-2.2498 -19.9513,-4.1015 -28.1041,-3.6905 -12.8467,0.6476 -12.6083,-0.3881 -5.6853,24.7014 3.1978,11.589 6.1569,21.071 6.5758,21.071 0.419,0 1.0711,-0.9749 1.4493,-2.1664 z m -89.1591,-2.6279 c 0.7947,-1.5369 2.1367,-5.4744 2.9822,-8.75 2.0081,-7.7802 5.8428,-32.5704 5.1459,-33.2672 -0.9318,-0.9319 -37.9075,-1.4223 -40.2037,-0.5333 -2.1144,0.8187 -1.9891,1.1696 4.0495,11.3448 3.4273,5.775 8.9667,14.55 12.3098,19.5 10.1003,14.9553 12.9415,17.0715 15.7163,11.7057 z m 46.0624,-1.9557 c 0.7901,-0.9625 2.2824,-2.8274 3.3162,-4.1441 l 1.8795,-2.3941 2.5265,2.7246 2.5264,2.7247 3.635,-10.1201 c 4.5249,-12.5981 8.6603,-26.7518 8.6603,-29.6408 0,-1.2024 -0.7118,-2.4594 -1.5818,-2.7932 -2.3586,-0.9051 -33.2498,-0.6491 -38.2486,0.317 -2.3818,0.4603 -4.7466,1.253 -5.2552,1.7616 -1.4413,1.4413 12.178,34.0695 16.7233,40.0644 2.8114,3.7081 3.7972,3.9622 5.8184,1.5 z m -195.4523,-179.5855 c 4.4729,-10.2592 5.2662,-34.3468 1.3926,-42.2805 -3.7975,-7.7778 -9.0078,-4.3756 -11.8657,7.748 -1.999,8.4798 -2,26.9246 0,33.6529 2.5171,8.476 6.999,8.8523 10.475,0.8796 z m 372.4931,-15.9614 c 13.7194,-13.7194 -0.2049,-55.7031 -18.4746,-55.7031 -7.9595,0 -11.9661,6.7002 -12.0003,20.0685 -0.042,16.4539 7.1569,31.8411 17.2301,36.8272 6.0976,3.0183 9.3245,2.7277 13.2448,-1.1926 z"
       id="path4656"
       inkscape:connector-curvature="0" />
  </g>
</svg>
