<?xml version="1.0" encoding="UTF-8" standalone="no"?>
<!-- Created with Inkscape (http://www.inkscape.org/) -->

<svg
   xmlns:dc="http://purl.org/dc/elements/1.1/"
   xmlns:cc="http://creativecommons.org/ns#"
   xmlns:rdf="http://www.w3.org/1999/02/22-rdf-syntax-ns#"
   xmlns:svg="http://www.w3.org/2000/svg"
   xmlns="http://www.w3.org/2000/svg"
   xmlns:sodipodi="http://sodipodi.sourceforge.net/DTD/sodipodi-0.dtd"
   xmlns:inkscape="http://www.inkscape.org/namespaces/inkscape"
   width="2500"
   height="1217.61"
   id="svg4658"
   version="1.1"
   inkscape:version="0.48.4 r9939"
   sodipodi:docname="shark_light.svg">
  <defs
     id="defs4660">
    <inkscape:path-effect
       effect="skeletal"
       id="path-effect3013"
       is_visible="true"
       pattern="M 0,0 0,10 10,5 z"
       copytype="single_stretched"
       prop_scale="1"
       scale_y_rel="false"
       spacing="0"
       normal_offset="0"
       tang_offset="0"
       prop_units="false"
       vertical_pattern="false"
       fuse_tolerance="0" />
    <inkscape:path-effect
       effect="spiro"
       id="path-effect3011"
       is_visible="true" />
    <inkscape:path-effect
       effect="skeletal"
       id="path-effect3007"
       is_visible="true"
       pattern="M 0,0 0,10 10,5 z"
       copytype="single_stretched"
       prop_scale="1"
       scale_y_rel="false"
       spacing="0"
       normal_offset="0"
       tang_offset="0"
       prop_units="false"
       vertical_pattern="false"
       fuse_tolerance="0" />
    <inkscape:path-effect
       effect="spiro"
       id="path-effect3005"
       is_visible="true" />
    <inkscape:path-effect
       effect="skeletal"
       id="path-effect3001"
       is_visible="true"
       pattern="M 0,0 0,10 10,5 z"
       copytype="single_stretched"
       prop_scale="1"
       scale_y_rel="false"
       spacing="0"
       normal_offset="0"
       tang_offset="0"
       prop_units="false"
       vertical_pattern="false"
       fuse_tolerance="0" />
    <inkscape:path-effect
       effect="spiro"
       id="path-effect2999"
       is_visible="true" />
    <inkscape:path-effect
       effect="skeletal"
       id="path-effect2995"
       is_visible="true"
       pattern="M 0,0 0,10 10,5 z"
       copytype="single_stretched"
       prop_scale="1"
       scale_y_rel="false"
       spacing="0"
       normal_offset="0"
       tang_offset="0"
       prop_units="false"
       vertical_pattern="false"
       fuse_tolerance="0" />
    <inkscape:path-effect
       effect="spiro"
       id="path-effect2993"
       is_visible="true" />
  </defs>
  <sodipodi:namedview
     id="base"
     pagecolor="#ffffff"
     bordercolor="#666666"
     borderopacity="1.0"
     inkscape:pageopacity="0.0"
     inkscape:pageshadow="2"
     inkscape:zoom="0.24748737"
     inkscape:cx="931.78624"
     inkscape:cy="914.33849"
     inkscape:document-units="px"
     inkscape:current-layer="layer1"
     showgrid="false"
     fit-margin-top="0"
     fit-margin-left="0"
     fit-margin-right="0"
     fit-margin-bottom="0"
     inkscape:window-width="1366"
     inkscape:window-height="719"
     inkscape:window-x="0"
     inkscape:window-y="24"
     inkscape:window-maximized="1" />
  <metadata
     id="metadata4663">
    <rdf:RDF>
      <cc:Work
         rdf:about="">
        <dc:format>image/svg+xml</dc:format>
        <dc:type
           rdf:resource="http://purl.org/dc/dcmitype/StillImage" />
        <dc:title />
      </cc:Work>
    </rdf:RDF>
  </metadata>
  <g
     inkscape:label="Layer 1"
     inkscape:groupmode="layer"
     id="layer1"
     transform="translate(216.99882,-29.551813)">
    <path
       style="fill:#ececec;fill-opacity:1"
       d="m 1475.3618,1186.7198 c -13.3524,-10.1347 -64.9823,-58.5485 -204.5664,-191.82319 -97.9463,-93.51904 -95.931,-91.64034 -97.3558,-90.75974 -3.6638,2.2643 17.3418,48.4735 32.6927,71.91894 5.3088,8.1081 5.9597,9.4743 5.3144,11.156 -1.1379,2.9653 -4.7876,0.8238 -39.519,-23.18864 -26.3434,-18.2131 -36.0816,-24.6226 -39.7204,-26.143 l -2.4871,-1.0392 -3.4087,4.2969 c -9.9208,12.5058 -15.8332,25.6454 -22.5235,50.05654 -2.817,10.27819 -4.3258,13.32839 -6.5933,13.32839 -2.2582,0 -12.8083,-5.56579 -18.1212,-9.56009 -7.7857,-5.8534 -14.3344,-14.6917 -20.7547,-28.0112 -4.5153,-9.36744 -5.9848,-13.76294 -8.3561,-24.99404 -1.0781,-5.1057 -2.3282,-9.7267 -2.778,-10.2687 -0.5907,-0.7117 -3.6559,-0.9827 -11.0279,-0.9752 -18.7506,0.019 -72.09926,-7.0716 -111.44449,-14.8123 l -12.17235,-2.3949 -11.29372,1.6309 c -44.07722,6.3648 -95.95102,7.4427 -117.51889,2.4419 -3.4132,-0.7914 -13.62671,-4.1986 -22.69669,-7.5716 -22.77195,-8.4684 -27.53741,-9.6178 -35.01355,-8.4455 -22.02064,3.4532 -72.30306,50.1446 -167.64134,155.66883 -8.02571,8.8833 -18.52613,20.4792 -23.33429,25.7686 -4.808,5.2895 -18.50534,19.3115 -30.43835,31.1599 -11.93307,11.8485 -30.68832,30.781 -41.67836,42.0721 -20.60222,21.167 -25.55002,25.2252 -30.77434,25.2414 -3.37065,0.011 -5.74919,-1.9245 -5.74919,-4.6769 0,-3.8099 2.89987,-11.2884 8.77439,-22.6289 31.96595,-61.7074 138.78907,-203.86313 207.69986,-276.39803 11.33004,-11.9259 31.58096,-31.4442 37.2252,-35.8786 l 4.67475,-3.6727 -1.85482,-4.194 c -3.28548,-7.429 -6.58496,-13.6253 -10.56465,-19.8394 -2.15981,-3.3725 -6.36801,-12.1444 -9.46545,-19.7306 -3.06729,-7.51217 -6.94019,-16.3782 -8.60651,-19.70215 -1.6664,-3.32402 -3.94369,-8.58743 -5.06075,-11.69649 -8.26191,-22.99522 -12.70561,-73.03982 -11.76104,-132.45077 0.73468,-46.20694 4.02739,-84.37886 14.43487,-167.34006 7.23563,-57.67816 6.89279,-52.30973 5.57384,-87.27434 -1.2597,-33.39708 -1.02143,-43.90588 1.24201,-54.77413 2.02963,-9.74551 4.42224,-16.44988 10.80509,-30.27701 5.0716,-10.98659 5.39281,-12.0074 5.39281,-17.13617 0,-10.2172 1.63686,-29.01784 3.46637,-39.81347 3.52906,-20.82473 9.37612,-37.68876 20.88004,-60.22196 9.17077,-17.96332 12.88649,-24.4735 20.73839,-36.33518 21.13655,-31.93033 43.2853,-50.640411 57.91251,-48.921311 10.96751,1.28902 30.38842,12.467871 56.26427,32.386111 4.44316,3.4202 9.46337,7.15739 11.156,8.30492 4.07164,2.7603 31.35914,29.93909 42.25117,42.08298 11.02598,12.29307 20.76779,24.39725 26.51536,32.94514 2.85909,4.25205 6.08841,7.93953 8.75423,9.99616 4.90657,3.78542 28.34249,27.48656 36.74611,37.16205 4.21405,4.85186 9.05452,12.2366 18.06642,27.56279 6.77055,11.51438 13.17805,21.97925 14.23885,23.25519 l 1.9287,2.31991 3.4569,-3.02774 c 4.25064,-3.72295 6.23434,-4.80462 8.81114,-4.80462 3.8337,0 3.8843,1.79812 0.757,26.92829 -1.0641,8.55134 -1.1326,11.27025 -0.3874,15.38759 2.0055,11.0816 7.7497,27.04223 19.6598,54.62595 9.3994,21.76905 17.1695,37.1261 36.2028,71.5523 30.7535,55.62507 32.9482,60.47462 46.1349,101.94279 12.1451,38.19285 14.4814,45.98967 17.406,58.08816 2.8133,11.63802 5.2742,27.79392 5.2791,34.65686 0,4.35092 0.5121,6.18181 3.7442,13.46414 9.7888,22.05573 29.2269,52.53255 40.4615,63.43904 l 3.5664,3.46221 5.9291,-2.18789 c 14.9133,-5.50291 21.1935,-7.42913 24.2131,-7.42651 3.4665,0 8.2834,2.35992 8.2264,4.02509 -0.019,0.53518 -0.5043,4.92672 -1.0799,9.75896 -0.5756,4.83224 -0.842,9.31888 -0.5921,9.97031 2.0559,5.35766 24.7827,15.62749 50.2829,22.72209 33.2875,9.26118 99.1099,20.45677 120.2718,20.45677 4.8043,0 4.8094,0 8.6023,-4.0393 6.0596,-6.44923 17.4945,-21.54938 45.2732,-59.78439 45.7463,-62.96572 54.2142,-73.52576 68.1006,-84.92582 3.1737,-2.60542 16.5032,-13.75781 29.6211,-24.78302 46.029,-38.68594 62.0646,-50.4496 74.0482,-54.32104 l 5.0823,-1.64194 1.3513,1.66886 c 2.0451,2.52557 2.6277,8.86872 2.4462,26.63385 -0.1749,17.11423 -1.3158,40.97561 -1.9916,41.65136 -0.2216,0.22174 -4.7873,-0.66328 -10.1459,-1.96669 -11.4603,-2.78754 -15.735,-3.00596 -17.6397,-0.90133 -1.1168,1.23409 -1.1979,1.93992 -0.5082,4.42394 1.7936,6.4594 1.2251,8.79239 -11.0437,45.31676 -12.7238,37.87864 -35.4403,108.98836 -40.6627,127.28696 -4.5724,16.0209 -4.4681,17.8818 2.0915,37.3149 9.5733,28.3615 24.4559,66.959 30.3005,78.5833 3.7843,7.5265 9.9281,16.0507 35.4132,49.13364 29.8046,38.69039 33.5111,44.05909 33.0552,47.87849 -0.1867,1.5641 -0.9439,2.2542 -3.4865,3.1774 -2.7812,1.0098 -3.8318,1.0351 -7.3091,0.1761 -18.6541,-4.6083 -58.0994,-22.1277 -78.1191,-34.69609 -4.3402,-2.7248 -12.3033,-8.7156 -17.6957,-13.3128 -5.3924,-4.5974 -16.2095,-13.60184 -24.0379,-20.01004 -60.2242,-49.2979 -84.2034,-72.8582 -96.0456,-94.3676 -4.2098,-7.6462 -8.3298,-12.092 -13.546,-14.6172 -9.3124,-4.508 -43.3507,-2.1974 -78.5217,5.3302 -27.2727,5.8372 -43.4758,11.7696 -51.3841,18.8134 -4.9908,4.4454 -5.3009,6.6816 -2.1772,15.7038 1.3186,3.8086 2.3975,7.9698 2.3975,9.2471 0,2.1742 -1.6433,4.7403 -3.0357,4.7403 -2.2843,0 -8.1013,-3.0813 -17.2535,-9.139 -14.2079,-9.4042 -21.5203,-11.4033 -25.5249,-6.9782 -1.3715,1.5155 -1.3192,1.6339 2.4553,5.563 9.2204,9.5977 93.6389,100.72344 133.7961,144.42623 41.6107,45.2847 83.3259,91.8083 97.96,109.2519 5.6387,6.7212 11.2475,15.0151 17.3624,25.6745 4.7577,8.2936 5.7645,11.3915 4.2826,13.1772 -1.2617,1.5203 -1.6918,1.4676 -4.3218,-0.5287 z M 852.20275,869.90047 c 1.66532,-0.6332 1.97354,-1.2319 1.97354,-3.8334 0,-2.9528 -5.22248,-24.6062 -8.26529,-34.27 l -1.45359,-4.6162 -1.2901,2.4517 c -1.97784,3.7585 -2.62558,3.6903 -4.74884,-0.4998 -2.47702,-4.8882 -4.34684,-5.1245 -6.53942,-0.8268 -2.22805,4.3673 -6.44409,16.4158 -10.07718,28.7984 -3.46752,11.8181 -3.49398,11.6532 1.98392,12.3596 1.69264,0.2183 3.94307,0.5274 5.00097,0.6871 4.23051,0.6382 21.56609,0.4527 23.41599,-0.2506 z m -48.80552,-2.9804 4.23159,-0.5009 -0.22158,-3.8469 c -0.34761,-6.0338 -3.88029,-27.097 -5.6087,-33.441 -2.4564,-9.0156 -3.85313,-9.7656 -7.52646,-4.0413 -3.25486,5.0723 -9.08491,17.0266 -14.34008,29.4038 -2.42547,5.7127 -4.56542,10.6492 -4.7553,10.9702 -0.79092,1.3364 3.82697,2.0101 13.60232,1.9844 5.71265,-0.015 12.29084,-0.2527 14.61821,-0.5283 z m 83.38159,-3.9289 5.28956,-1.6943 -0.45647,-3.3307 c -0.82808,-6.0415 -13.44952,-35.7744 -16.11842,-37.9709 -1.08737,-0.895 -1.43882,-0.7237 -2.67006,1.3008 l -1.41781,2.3315 -0.98873,-2.455 c -0.5438,-1.3502 -1.11129,-2.1087 -1.26101,-1.6855 -0.1498,0.4231 -2.37377,10.077 -4.94211,21.453 -4.94496,21.9025 -4.95065,22.0134 -1.21632,23.6404 2.89541,1.2616 18.04111,0.2494 23.78137,-1.5893 z m -114.15677,-1.8499 c 0,-7.3875 -4.31153,-43.877 -5.42182,-45.8858 -0.47878,-0.8663 -1.05366,-0.2173 -2.30575,2.6033 l -1.66794,3.7573 -1.64963,-2.066 -1.64962,-2.0661 -4.72492,8.6954 c -6.18473,11.3818 -8.73922,18.022 -8.73922,22.7167 0,3.8029 1.09952,5.4305 6.33345,9.3751 2.16134,1.6288 13.81213,5.3441 16.94028,5.4019 2.77207,0.052 2.88517,-0.048 2.88517,-2.5318 z m 135.97068,-6.7869 c 8.51819,-4.191 10.48888,-6.0631 9.79205,-9.302 -1.37095,-6.3729 -12.94381,-32.7773 -14.89434,-33.9829 -1.43412,-0.8863 -1.49606,-0.5683 -4.40516,22.6348 l -0.43208,3.446 -1.65755,-2.2852 c -2.51495,-3.4671 -4.22121,-4.9914 -5.58747,-4.9914 -1.08275,0 -1.19615,1.0803 -0.90879,8.6555 0.27359,7.2113 0.65766,9.376 2.30191,12.9733 2.27482,4.977 4.62781,6.9825 7.48683,6.3815 1.0859,-0.2282 4.82301,-1.8165 8.3046,-3.5296 z m -170.29039,-6.4632 c 0.63781,-1.6621 0.44485,-31.0102 -0.21958,-33.3973 -0.81709,-2.9357 -1.39027,-1.2496 -3.94169,11.5935 -1.28725,6.4794 -2.48125,11.9216 -2.65336,12.0938 -1.13583,1.1359 -1.18454,-7.427 -0.1141,-20.0731 1.34534,-15.894 1.61216,-27.47276 0.63305,-27.47276 -0.6679,0 -4.26113,9.67576 -7.51084,20.22486 -1.14545,3.7184 -2.14118,6.6613 -2.21266,6.5397 -0.0716,-0.1216 0.19319,-5.4637 0.58835,-11.8717 0.70098,-11.3676 0.43016,-15.66224 -0.9875,-15.66224 -0.38446,0 -1.78096,2.28991 -3.10337,5.08864 -1.32234,2.7989 -2.58258,4.9105 -2.80047,4.6926 -0.21789,-0.2179 0.8901,-7.70776 2.46217,-16.6441 1.57207,-8.93635 2.61043,-16.49581 2.30752,-16.79879 -0.838,-0.83793 -3.31394,2.7773 -5.13984,7.50468 -1.55107,4.01578 -1.61131,5.13422 -1.18122,21.92731 0.51494,20.1093 0.8974,22.6623 3.59723,24.0134 1.84266,0.9222 2.02531,1.4022 2.19642,5.773 0.10133,2.5875 2.48456,4.0969 4.64398,2.9412 1.598,-0.8553 1.218,-1.7442 5.16138,12.0743 0.83086,2.9115 1.92791,4.6672 3.96623,6.3474 3.23393,2.6656 3.66702,2.7768 4.3083,1.1056 z m 197.35563,-8.5926 c 6.95865,-4.1029 7.32126,-4.8423 5.85513,-11.9402 -1.34934,-6.5325 -5.81474,-21.0268 -8.17258,-26.5274 -1.17907,-2.7506 -1.72572,-3.3689 -2.21143,-2.5009 -0.62427,1.1159 -3.29848,21.7205 -4.24366,32.6977 -0.25505,2.9621 -0.65013,6.684 -0.87794,8.2708 -0.40824,2.8438 -0.37708,2.8852 2.17149,2.8852 1.60493,0 4.44148,-1.0943 7.47899,-2.8852 z m -183.03979,-19.2296 c 0,-1.5027 -2.5835,0.048 -7.06906,4.2442 -2.79246,2.6119 -3.70225,4.0167 -3.70225,5.7164 0,2.7477 1.18084,5.1872 3.34134,6.9028 1.60631,1.2758 1.65116,1.2037 4.52618,-7.2771 1.59708,-4.7111 2.90379,-9.0249 2.90379,-9.5863 z m 195.36556,3.3236 2.55318,-2.6341 -3.06174,-6.413 c -3.14815,-6.5941 -4.92203,-8.826 -6.3253,-7.9587 -2.25552,1.3939 1.17199,19.64 3.68933,19.64 0.32529,0 1.74033,-1.1854 3.14453,-2.6342 z m 8.40978,-6.5421 c 4.31714,-2.2024 5.00674,-3.3646 4.49287,-7.5714 -0.84847,-6.9461 -6.87672,-22.94205 -8.31169,-22.05519 -1.07536,0.66467 -0.47409,31.10909 0.61443,31.10909 0.16411,0 1.60616,-0.6671 3.20439,-1.4825 z m 16.03825,-13.2867 c 2.37777,-2.3046 2.53711,-2.786 2.53711,-7.6664 0,-4.92315 -1.83674,-16.26211 -3.83828,-23.69532 -0.66821,-2.48148 -1.0916,-3.08444 -1.60085,-2.27982 -0.80808,1.27678 -0.97742,36.10064 -0.17549,36.10064 0.29721,0 1.68209,-1.1066 3.07751,-2.4591 z m -7.90883,-5.0182 c 3.13437,-5.011 3.39181,-7.58066 1.23531,-12.3315 -2.17057,-4.78177 -6.17181,-10.32669 -7.20462,-9.98416 -2.50141,0.82962 -1.85551,14.60129 1.04882,22.36386 0.89548,2.3934 1.74972,4.3516 1.89829,4.3516 0.14856,0 1.50852,-1.9799 3.0222,-4.3998 z m 20.64022,-22.68181 c 2.7205,-1.91614 2.7752,-5.19523 0.2077,-12.47133 -2.2765,-6.45171 -3.1653,-7.52938 -3.7691,-4.57004 -0.4037,1.97861 -2.0166,17.0683 -2.0166,18.8668 0,0.99027 2.9519,0.0246 5.578,-1.82543 z M 969.25855,506.61584 c 2.60742,-5.14561 2.46747,-7.21432 -0.5595,-8.26952 -4.03709,-1.40728 -4.5021,-1.15638 -4.49479,2.42523 0.008,1.79843 0.22527,5.08968 0.4924,7.31388 0.40877,3.40304 0.66113,3.89852 1.59208,3.12584 0.6085,-0.50495 1.94491,-2.57296 2.96981,-4.59543 z M 716.08619,493.61409 c -3.7231,-11.39197 -4.12726,-14.36539 -1.33941,-9.85452 2.17234,3.51484 4.4961,5.60447 5.11637,4.60081 0.42401,-0.68613 -1.30986,-14.85518 -2.31791,-18.94104 -0.20873,-0.84632 1.83613,2.72322 4.54419,7.9323 8.54281,16.43241 8.86579,15.53462 3.88829,-10.80971 -1.20777,-6.39254 -1.78334,-11.41066 -1.45613,-12.69476 0.46894,-1.84043 0.88433,-1.07798 3.11561,5.71926 5.09544,15.52262 6.30422,15.27057 5.04643,-1.05213 -0.45093,-5.85067 -1.0375,-11.41659 -1.30363,-12.3687 -1.30833,-4.68059 -7.04737,0.86102 -9.04875,8.73746 l -1.38927,5.46752 -2.81939,-0.0819 c -2.77516,-0.0806 -2.82301,-0.0315 -3.05359,3.13992 -0.19212,2.64335 -0.53749,3.26501 -1.92345,3.4622 -1.61708,0.23012 -1.69902,0.63436 -1.91922,9.47291 -0.25543,10.25268 0.77638,20.05911 2.45147,23.29836 1.44421,2.79277 5.35542,6.67359 5.69603,5.6517 0.1471,-0.44116 -1.33234,-5.6971 -3.28764,-11.67972 z m 242.42582,0.77723 c 3.55076,-10.46033 3.67394,-13.41667 0.65943,-15.8286 -1.25563,-1.00466 -2.4944,-1.82835 -2.75284,-1.83043 -0.68675,-0.008 -1.4332,6.7433 -1.95669,17.69188 -0.55372,11.58009 0.10987,11.5747 4.0501,-0.0331 z m -6.20128,-4.17034 c 0.81462,-1.51276 1.15191,-3.21386 0.85978,-4.33638 -0.70544,-2.71006 -3.93968,-6.42955 -5.01358,-5.76589 -2.99858,1.85329 -6.30369,14.44734 -4.61805,17.59695 0.75161,1.40442 1.01396,1.29271 4.11703,-1.75273 1.82281,-1.78896 3.91745,-4.37284 4.65482,-5.74195 z m -9.77758,-3.30072 c 3.28232,-5.11514 6.39877,-12.41371 6.12356,-14.34131 -0.14695,-1.02936 -1.47559,-2.24836 -3.64101,-3.34049 -1.87528,-0.9458 -3.50921,-1.61993 -3.63101,-1.49822 -0.12179,0.1218 -0.7513,3.74965 -1.39904,8.06195 -1.32233,8.80393 -1.51968,14.77508 -0.48848,14.77508 0.37908,0 1.74526,-1.6457 3.03598,-3.65701 z m -19.19287,-9.66195 c 3.21185,-5.81835 8.54334,-18.83433 8.54334,-20.85695 0,-2.19004 -11.86306,-7.86029 -14.61659,-6.98643 -1.40566,0.44616 -1.40466,0.80415 0.0516,18.46565 0.93395,11.32827 1.49713,15.0029 2.29967,15.0029 0.33938,0 2.01447,-2.53134 3.72226,-5.62517 z m 9.06321,-2.26097 c 0.85655,-0.95211 2.70399,-3.43282 4.10541,-5.51276 l 2.54796,-3.78165 -2.2402,-1.80428 c -1.23209,-0.99242 -2.75823,-1.70971 -3.39143,-1.594 -1.52899,0.27921 -4.56573,7.90415 -4.5955,11.53862 -0.0277,3.36103 1.22439,3.76534 3.57376,1.15407 z m -34.54245,-8.15673 c 5.30918,-8.04756 10.91258,-18.59606 10.92835,-20.57275 0.0146,-1.84951 -4.89872,-4.82593 -12.00009,-7.26918 -5.83021,-2.00585 -8.85487,-1.94145 -10.89673,0.23213 -4.71583,5.01974 -7.43074,19.8019 -3.63685,19.8019 0.57611,0 2.30467,-1.18577 3.84136,-2.63505 1.62439,-1.53198 2.91425,-2.25659 3.08128,-1.7311 0.15811,0.49717 0.68014,4.48587 1.16023,8.86379 0.48001,4.37792 1.05097,8.42417 1.26871,8.99166 0.69767,1.81812 2.21635,0.43847 6.25374,-5.6814 z m -134.87278,-9.68449 c 0.64382,-6.72069 1.17062,-14.98167 1.17062,-18.35771 l 0,-6.13834 -4.42394,0.42801 c -8.40078,0.81277 -18.25745,4.82562 -20.42556,8.31568 -0.41708,0.67144 -0.52587,2.46048 -0.24159,3.97562 0.58642,3.12591 6.63375,12.78686 11.8476,18.9272 l 3.49814,4.11972 1.28486,-1.70333 1.28487,-1.70341 1.7051,2.89002 c 1.04528,1.77158 1.98076,2.61443 2.41723,2.17796 0.39169,-0.39169 1.23886,-6.21081 1.88267,-12.93142 z m -16.52511,8.78393 c 0,-1.174 -6.08972,-13.06237 -6.69107,-13.06237 -1.44651,0 -4.08025,3.57376 -4.08025,5.53653 0,1.83935 0.75969,2.68182 4.73553,5.25155 4.92149,3.18092 6.03579,3.60078 6.03579,2.27429 z m 115.06287,-0.88033 0.52902,-1.66678 1.3478,1.78688 c 0.80962,1.07329 1.81581,1.60731 2.51972,1.33719 1.46036,-0.56034 8.54465,-11.93885 13.09392,-21.03069 4.86294,-9.71888 4.94911,-10.13026 2.33206,-11.13677 -4.50079,-1.73095 -15.35012,-3.15561 -21.62272,-2.83939 -9.88399,0.49825 -9.70057,-0.2986 -4.37415,19.00475 2.46032,8.91634 4.73699,16.2116 5.05928,16.2116 0.32237,0 0.82409,-0.75007 1.11507,-1.66679 z m -68.5972,-2.02185 c 0.61143,-1.18246 1.64394,-4.21189 2.29445,-6.73207 1.54499,-5.98593 4.49533,-25.059 3.95915,-25.5951 -0.71691,-0.71699 -29.16526,-1.09429 -30.93191,-0.41031 -1.62677,0.62989 -1.53037,0.89986 3.11561,8.72845 2.63689,4.44317 6.89879,11.19448 9.4709,15.0029 7.77097,11.50631 9.95693,13.13447 12.0918,9.00613 z m 35.43947,-1.50467 c 0.60789,-0.74053 1.75604,-2.17535 2.55142,-3.18839 l 1.44605,-1.84197 1.94384,2.09625 1.94376,2.09633 2.79669,-7.7862 c 3.48137,-9.69272 6.66306,-20.58229 6.66306,-22.80503 0,-0.9251 -0.54764,-1.89221 -1.217,-2.14903 -1.81466,-0.69636 -25.58172,-0.4994 -29.4277,0.2439 -1.8325,0.35414 -3.65193,0.96403 -4.04324,1.35534 -1.10891,1.1089 9.36951,26.21237 12.86657,30.82473 2.16303,2.85293 2.92148,3.04843 4.47655,1.15407 z m -150.377,-138.16942 c 3.44135,-7.89322 4.0517,-26.42573 1.07143,-32.52975 -2.92171,-5.98408 -6.93041,-3.3665 -9.12922,5.96115 -1.53799,6.52418 -1.53876,20.71524 0,25.89185 1.9366,6.52126 5.38488,6.81078 8.05925,0.67675 z M 964.57987,311.0834 c 10.55543,-10.55542 -0.15764,-42.85682 -14.21398,-42.85682 -6.12388,0 -9.20647,5.15499 -9.23278,15.44029 -0.0323,12.65929 5.50637,24.49789 13.25648,28.3341 4.69137,2.32221 7.17408,2.09863 10.19028,-0.91757 z"
       id="path4656"
       inkscape:connector-curvature="0" />
  </g>
</svg>
